<svg width="24" height="24" viewBox="0 0 24 24" fill="none" xmlns="http://www.w3.org/2000/svg">
<path d="M5.37214 23.0995H0.396429V7.67713H5.37214V23.0995ZM2.88161 5.57339C1.29054 5.57339 0 4.30495 0 2.77354C1.13882e-08 2.03795 0.303597 1.33249 0.844003 0.812352C1.38441 0.292212 2.11736 0 2.88161 0C3.64586 0 4.3788 0.292212 4.91921 0.812352C5.45962 1.33249 5.76321 2.03795 5.76321 2.77354C5.76321 4.30495 4.47214 5.57339 2.88161 5.57339ZM23.9946 23.0995H19.0296V15.592C19.0296 13.8028 18.9921 11.5082 16.4427 11.5082C13.8557 11.5082 13.4593 13.4521 13.4593 15.4631V23.0995H8.48893V7.67713H13.2611V9.78088H13.3307C13.995 8.56917 15.6177 7.29042 18.0386 7.29042C23.0743 7.29042 24 10.4821 24 14.6278V23.0995H23.9946Z" fill="white"/>
</svg>
