<svg width="16" height="17" viewBox="0 0 16 17" fill="none" xmlns="http://www.w3.org/2000/svg">
<path d="M15.5 8.9375C15.8125 8.5312 16 8 16 7.375C15.9688 6.1875 14.9688 5.09375 13.7188 5.09375H11.5312C11.7812 4.5625 12.1562 3.875 12.1562 2.9375C12.1562 1.09375 11.4375 0 9.5625 0C8.625 0 8.2812 1.1875 8.125 2.125C8 2.65625 7.9062 3.1875 7.5938 3.5C6.8438 4.21875 5.75 6 5.0625 6.375C5 6.4062 4.90625 6.4375 4.8125 6.4375C4.625 6.1875 4.3125 6 4 6H1C0.4375 6 0 6.4688 0 7V15C0 15.5625 0.4375 16 1 16H4C4.53125 16 5 15.5625 5 15V14.75C6 14.75 8.125 16.0312 10.5312 16C10.6875 16 11.7188 16.0312 11.8125 16C13.6562 16 14.6875 14.9062 14.625 13.2188C15.0938 12.6562 15.3438 11.8438 15.2188 11.125C15.5938 10.5 15.6875 9.6562 15.5 8.9375ZM1 15V7H4V15H1ZM14.25 8.6562C14.75 9 14.75 10.5 14.0625 10.875C14.4688 11.5625 14.0938 12.5312 13.5938 12.8125C13.8438 14.4375 13 15 11.8125 15C11.6875 15.0312 10.625 15 10.5312 15C8.25 15 6.3125 13.75 5 13.75V7.375C6.1562 7.375 7.25 5.25 8.3125 4.1875C9.25 3.25 8.9375 1.65625 9.5625 1C11.1562 1 11.1562 2.125 11.1562 2.9375C11.1562 4.25 10.2188 4.84375 10.2188 6.0938H13.7188C14.4375 6.0938 14.9688 6.75 15 7.375C15 8 14.75 8.5 14.25 8.6562ZM3.25 13.5C3.25 13.0938 2.90625 12.75 2.5 12.75C2.0625 12.75 1.75 13.0938 1.75 13.5C1.75 13.9375 2.0625 14.25 2.5 14.25C2.90625 14.25 3.25 13.9375 3.25 13.5Z" fill="#4F4F4F"/>
</svg>
