<svg width="18" height="17" viewBox="0 0 18 17" fill="none" xmlns="http://www.w3.org/2000/svg">
<path d="M17.625 6.15621L12.125 0.406257C11.375 -0.406243 10 0.125007 10 1.28126V4.03126C4.8125 4.09376 0 5.03126 0 10.375C0 13.3438 1.71875 15.0625 2.78125 15.8125C3.53125 16.375 4.59375 15.6562 4.3125 14.75C3.125 10.5312 5.15625 10.0625 10 10.0312V12.75C10 13.9062 11.375 14.4375 12.125 13.625L17.625 7.87501C18.0938 7.40621 18.0938 6.62501 17.625 6.15621ZM16.9062 7.18751L11.4062 12.9375C11.25 13.0938 11 13 11 12.75V9.00001C5.625 9.00001 1.75 9.31251 3.375 15C2.25 14.1875 1 12.6875 1 10.375C1 5.37501 6.0625 5.00001 11 5.00001V1.25001C11 1.03126 11.25 0.937507 11.4062 1.09376L16.9062 6.84381C16.9688 6.87501 17 6.96881 17 7.00001C17 7.06251 16.9688 7.15621 16.9062 7.18751Z" fill="#4F4F4F"/>
</svg>
