<svg width="16" height="15" viewBox="0 0 16 15" fill="none" xmlns="http://www.w3.org/2000/svg">
<path d="M14.3553 4.17214C14.3654 4.32718 14.3654 4.48226 14.3654 4.63731C14.3654 9.3664 11.066 14.8154 5.0355 14.8154C3.17763 14.8154 1.45175 14.2284 -3.05176e-05 13.2095C0.263938 13.2427 0.51772 13.2538 0.791845 13.2538C2.32481 13.2538 3.736 12.689 4.86291 11.7255C3.42128 11.6922 2.21316 10.6622 1.79691 9.24459C1.99997 9.2778 2.203 9.29996 2.41622 9.29996C2.71063 9.29996 3.00506 9.25564 3.27916 9.17815C1.77663 8.84587 0.649688 7.4061 0.649688 5.6673V5.62301C1.08622 5.88882 1.59388 6.05494 2.13191 6.07707C1.24866 5.43469 0.670001 4.33826 0.670001 3.09783C0.670001 2.43333 0.832407 1.82419 1.11669 1.29258C2.73091 3.46332 5.15731 4.88092 7.8781 5.036C7.82735 4.7702 7.79688 4.49334 7.79688 4.21646C7.79688 2.24505 9.25881 0.63916 11.0761 0.63916C12.0202 0.63916 12.873 1.07109 13.472 1.76883C14.2131 1.61379 14.9238 1.31474 15.5532 0.904967C15.3095 1.73563 14.7918 2.43336 14.1116 2.87634C14.7715 2.79885 15.4111 2.59946 15.9999 2.3226C15.5533 3.03139 14.9949 3.66265 14.3553 4.17214Z" class="svg-fill"/>
</svg>
