<svg width="16" height="14" viewBox="0 0 16 14" fill="none" xmlns="http://www.w3.org/2000/svg">
<path d="M15.2682 2.23011C15.0937 1.42386 14.5797 0.788881 13.927 0.573392C12.7439 0.181824 8 0.181824 8 0.181824C8 0.181824 3.2561 0.181824 2.07302 0.573392C1.42032 0.788915 0.906268 1.42386 0.731795 2.23011C0.414795 3.69148 0.414795 6.74051 0.414795 6.74051C0.414795 6.74051 0.414795 9.78953 0.731795 11.2509C0.906268 12.0572 1.42032 12.6657 2.07302 12.8812C3.2561 13.2727 8 13.2727 8 13.2727C8 13.2727 12.7439 13.2727 13.927 12.8812C14.5797 12.6657 15.0937 12.0572 15.2682 11.2509C15.5852 9.78953 15.5852 6.74051 15.5852 6.74051C15.5852 6.74051 15.5852 3.69148 15.2682 2.23011ZM6.44847 9.50879V3.97222L10.4134 6.74057L6.44847 9.50879Z" class="svg-fill"/>
</svg>
